<svg width="672" height="470" viewBox="0 0 672 470" fill="none" xmlns="http://www.w3.org/2000/svg">
<path d="M502.324 201.809C434.324 186.63 248.928 164.241 148.538 220.788C97.3565 249.616 86.1395 285.883 142.969 314.379C203.201 344.581 342.933 350.162 496.074 305.163C667.128 254.9 555.496 213.677 502.324 201.809Z" fill="url(#paint0_linear_5_583)" fill-opacity="0.5"/>
<ellipse cx="89.4761" cy="453.411" rx="89.4761" ry="16.5469" fill="#F3F3F3"/>
<ellipse cx="553.54" cy="289.951" rx="52.6324" ry="10.5265" fill="#A7A7A7" fill-opacity="0.2"/>
<ellipse cx="500.907" cy="161.24" rx="37.3212" ry="7.17715" fill="#A7A7A7" fill-opacity="0.14"/>
<ellipse cx="356.407" cy="186.6" rx="44.9768" ry="8.61258" fill="#A7A7A7" fill-opacity="0.14"/>
<path d="M367.499 168.844L371.693 174.403L370.02 175.336L365.94 170.124L357.623 171.307L365.241 169.198L361.161 163.986L352.518 162.964L360.348 162.712L354.543 153.442L361.907 161.431L364.973 153.879L362.72 162.705L366.8 167.917L371.751 161.289L367.499 168.844Z" fill="#F9759C"/>
<ellipse rx="3.38407" ry="3.29434" transform="matrix(-0.95036 0.311153 0.311153 0.95036 372.58 161.403)" fill="#F9AEC5"/>
<ellipse rx="3.38407" ry="3.29434" transform="matrix(-0.95036 0.311153 0.311153 0.95036 365.103 153.067)" fill="#F9AEC5"/>
<ellipse rx="3.38407" ry="3.29434" transform="matrix(-0.95036 0.311153 0.311153 0.95036 353.958 152.864)" fill="#F9AEC5"/>
<ellipse rx="3.38407" ry="3.29434" transform="matrix(-0.95036 0.311153 0.311153 0.95036 351.202 163.78)" fill="#F9AEC5"/>
<ellipse rx="3.38407" ry="3.29434" transform="matrix(-0.95036 0.311153 0.311153 0.95036 356.307 172.123)" fill="#F9AEC5"/>
<mask id="mask0_5_583" style="mask-type:alpha" maskUnits="userSpaceOnUse" x="605" y="239" width="59" height="51">
<ellipse cx="634.458" cy="264.673" rx="14.8779" ry="35.5618" transform="rotate(51.1954 634.458 264.673)" fill="#C4C4C4"/>
</mask>
<g mask="url(#mask0_5_583)">
<ellipse cx="642.036" cy="273.88" rx="14.8779" ry="35.5618" transform="rotate(51.1954 642.036 273.88)" fill="#F9AEC5"/>
</g>
<mask id="mask1_5_583" style="mask-type:alpha" maskUnits="userSpaceOnUse" x="598" y="210" width="45" height="82">
<ellipse cx="620.597" cy="251.005" rx="17.7673" ry="42.4682" transform="rotate(20.6409 620.597 251.005)" fill="#8D8D8D"/>
</mask>
<g mask="url(#mask1_5_583)">
<ellipse cx="632.763" cy="255.588" rx="17.7673" ry="42.4682" transform="rotate(20.6409 632.763 255.588)" fill="#F9759C"/>
</g>
<path d="M602.032 153.158C603.727 159.493 602.51 162.074 603.582 163.985C603.985 164.704 603.577 166.316 602.767 166.162C601.113 165.849 599.686 164.6 598.398 162.693C596.439 159.793 597.013 159.228 595.461 153.386C593.91 147.544 588.695 143.851 587.068 143.539C594.145 142.492 600.336 146.823 602.032 153.158Z" fill="#6885EF" fill-opacity="0.5"/>
<path d="M602.484 144.784C606.877 135.818 614.196 131.8 617.653 129.464C617.799 131.35 617.376 132.964 616.105 136.768C614.834 140.571 612.215 145.157 607.888 147.888C612.035 151.913 604.323 165.188 603.594 166.544C603.59 166.579 603.58 166.607 603.565 166.628C603.522 166.686 603.535 166.654 603.594 166.544C603.747 165.316 597.144 155.683 602.484 144.784Z" fill="#6885EF"/>
<path d="M194.406 379.872C180.294 391.562 173.817 417.608 172 429C180.042 418.473 205.777 398.639 205.777 398.639C205.777 398.639 233.294 375.423 241.885 363.034C234.661 371.591 212.045 365.261 194.406 379.872Z" fill="#7F9AF8"/>
<path d="M168.633 371.228C160.247 387.5 167.336 416.568 172 429C174.534 415.686 191.763 387.588 191.763 387.588C191.763 387.588 207.869 355.418 209.912 340C207.114 351.019 179.115 350.889 168.633 371.228Z" fill="#6785EF"/>
<path d="M207.234 393.211C190.939 397.957 177.04 419.19 172 429C182.436 422.699 211.978 415.612 211.978 415.612C211.978 415.612 243.879 405.964 255.368 398.17C246.261 402.993 227.603 387.278 207.234 393.211Z" fill="#6785EF" fill-opacity="0.6"/>
<path d="M384.5 157.5C384.5 122.405 380.398 78.1868 340.5 59.4999C300.602 40.8129 250 51.4999 230 96.9999" stroke="#B2C3FF" stroke-width="2.78633" stroke-linecap="round" stroke-linejoin="round" stroke-dasharray="9.29 13.93"/>
<path d="M523 137C523 84.3541 496.54 27.6101 424 7.49998C351.46 -12.6102 240.5 22.5 218.5 93.5" stroke="#B2C3FF" stroke-width="2.78633" stroke-linecap="round" stroke-linejoin="round" stroke-dasharray="9.29 13.93"/>
<path d="M582 238C582 11.8557 273.5 13.5001 242.5 100.5" stroke="#B2C3FF" stroke-width="2.78633" stroke-linecap="round" stroke-linejoin="round" stroke-dasharray="9.29 13.93"/>
<path d="M172.763 91.9704C173.922 86.6362 179.28 83.3322 184.567 84.6916L270.631 106.822C275.753 108.139 278.853 113.342 277.573 118.474L232.221 300.335C230.932 305.504 225.69 308.643 220.525 307.338L139.912 286.982C134.879 285.711 131.76 280.678 132.862 275.605L172.763 91.9704Z" fill="#F3F3F3"/>
<rect x="174.306" y="82.8786" width="105.477" height="202.617" rx="9.18838" transform="rotate(13.9638 174.306 82.8786)" fill="white" stroke="#F3F3F3" stroke-width="0.875084"/>
<path d="M167.318 109.166L172.787 110.526C175.601 111.226 177.315 114.074 176.615 116.888L167.833 152.207C167.133 155.021 164.285 156.735 161.471 156.035L156.001 154.675L167.318 109.166Z" fill="#BBCAFF" fill-opacity="0.48"/>
<path d="M259.21 180.339L253.741 178.979C250.927 178.279 249.213 175.431 249.913 172.617L258.695 137.298C259.395 134.484 262.243 132.77 265.057 133.47L270.527 134.83L259.21 180.339Z" fill="#BBCAFF" fill-opacity="0.48"/>
<path d="M245.652 175.872C244.952 178.686 242.104 180.4 239.289 179.7L173.902 163.441C171.088 162.741 169.374 159.893 170.074 157.079L180.877 113.633C181.576 110.819 184.425 109.105 187.239 109.805L252.626 126.064C255.44 126.764 257.154 129.612 256.455 132.426L245.652 175.872Z" fill="#334891"/>
<rect x="199.869" y="147.469" width="29.7018" height="2.91996" rx="1.45998" transform="rotate(14.3109 199.869 147.469)" fill="#D2D9F1"/>
<rect x="189.649" y="151.319" width="47.6042" height="2.91996" rx="1.45998" transform="rotate(14.3109 189.649 151.319)" fill="#D2D9F1"/>
<rect x="157.447" y="173.156" width="93.7904" height="0.837414" transform="rotate(13.9638 157.447 173.156)" fill="#F3F3F3"/>
<rect x="152.193" y="194.285" width="93.7904" height="0.837414" transform="rotate(13.9638 152.193 194.285)" fill="#F3F3F3"/>
<rect x="146.939" y="215.415" width="93.7904" height="0.837414" transform="rotate(13.9638 146.939 215.415)" fill="#F3F3F3"/>
<rect x="150.782" y="231.04" width="79.6276" height="23.4476" rx="11.7238" transform="rotate(13.9638 150.782 231.04)" fill="#F9759C"/>
<circle cx="166.197" cy="186.55" r="6.69931" transform="rotate(13.9638 166.197 186.55)" fill="#B2C3FF"/>
<circle cx="160.943" cy="207.679" r="6.69931" transform="rotate(13.9638 160.943 207.679)" fill="#B2C3FF"/>
<rect x="177.974" y="184.301" width="61.9687" height="3.34966" transform="rotate(13.9638 177.974 184.301)" fill="#E2E2E2"/>
<rect x="176.155" y="191.615" width="32.6591" height="3.34966" transform="rotate(13.9638 176.155 191.615)" fill="#E2E2E2"/>
<rect x="172.72" y="205.43" width="61.9687" height="3.34966" transform="rotate(13.9638 172.72 205.43)" fill="#E2E2E2"/>
<rect x="170.901" y="212.744" width="32.6591" height="3.34966" transform="rotate(13.9638 170.901 212.744)" fill="#E2E2E2"/>
<rect x="163.868" y="272.262" width="32.6591" height="3.34966" transform="rotate(13.9638 163.868 272.262)" fill="#E2E2E2"/>
<path d="M197.087 255.113C197.397 254.926 197.497 254.523 197.311 254.212L194.265 249.151C194.078 248.841 193.675 248.74 193.364 248.927C193.054 249.114 192.953 249.517 193.14 249.828L195.847 254.327L191.349 257.034C191.038 257.221 190.938 257.624 191.125 257.935C191.311 258.245 191.715 258.345 192.025 258.159L197.087 255.113ZM177.086 250.338L196.59 255.188L196.907 253.914L177.403 249.064L177.086 250.338Z" fill="white"/>
<path d="M60.6719 338.808C60.6719 359.032 64.774 369.271 61.8976 388.449C59.2885 405.845 49.6406 443.77 49.6406 443.77C50.8663 444.996 52.7049 444.383 55.7691 444.383C58.8334 444.383 60.6719 444.996 61.8976 444.383L77.8317 388.449L80.896 365.16L96.7029 386.512L99.2646 442.379C99.2646 442.379 99.8943 443.605 103.571 443.605C107.249 443.605 109.087 442.379 109.087 442.379C109.087 442.379 114.607 390.637 113.994 382.67C113.381 374.703 98.0558 339.624 98.0558 336.56V325.938H63.7362C63.7362 325.938 60.6719 334.106 60.6719 338.808Z" fill="#3C56C6"/>
<path d="M48.5253 349.949C47.9125 347.498 47.9124 343.004 48.5253 340.757C50.1596 339.531 53.4281 337.447 53.4281 338.918C53.4281 340.757 55.2667 343.208 57.1052 347.498C58.576 350.93 56.4924 353.626 53.4281 354.239C50.3639 354.852 49.1381 352.401 48.5253 349.949Z" fill="#FCD8E3"/>
<path d="M76.606 253.622C76.606 254.602 75.7888 258.116 75.3803 259.75C76.1974 260.771 78.5671 262.814 81.5088 262.814C84.4504 262.814 86.8201 261.18 87.6373 260.363C87.2287 258.116 86.7793 253.622 88.2501 253.622C89.7209 253.622 92.5401 251.17 93.7658 249.944C94.3786 246.267 92.5401 237.075 91.9272 228.495C91.3144 219.915 80.2831 216.851 75.3803 220.528C70.4775 224.205 68.6389 231.559 68.6389 238.3C68.6389 245.042 76.606 252.396 76.606 253.622Z" fill="#FCD8E3"/>
<path d="M177.222 245.685C175.648 248.285 171.567 252.515 169.129 253.896C168.458 253.797 165.578 259.781 165.578 259.781L160.063 254.878C160.063 254.878 163.1 251.57 163.405 251.267C164.975 249.709 165.511 246.062 167.617 240.858C168.275 239.232 171.134 234.614 172.32 234.041C174.171 233.146 173.425 235.222 175.997 238.944C178.569 242.666 178.797 243.085 177.222 245.685Z" fill="#FCD8E3"/>
<path d="M97.9838 330.796C97.9838 330.796 66.8004 333.137 63.7361 328.234V309.662V291.618L57.105 308.275L54.0408 339.531C52.4065 340.961 48.525 341.369 47.9123 339.531C47.0774 337.026 44.2352 306.437 44.848 302.76C45.4609 299.083 59.5564 270.892 59.5564 270.892L71.7031 263.427L74.1545 258.524C74.9717 259.137 76.9737 259.137 80.896 259.137C84.8182 259.137 88.0458 259.137 88.8629 258.524L90.0886 263.427L102.958 267.104C102.958 267.104 125.021 281.813 127.472 281.813C129.924 281.813 154.438 259.75 154.438 259.75L159.953 254.234L166.695 259.75L162.405 267.104C162.405 267.104 132.988 300.811 129.924 300.811C126.86 300.811 100.507 289.78 100.507 289.78C100.099 289.78 99.2814 293.089 99.2814 296.521C99.2814 306.346 97.9838 330.796 97.9838 330.796Z" fill="#B2C3FF"/>
<path d="M90.0887 263.427C87.147 265.388 76.1974 264.653 71.0903 264.04C71.9075 261.997 73.6643 258.034 74.1546 258.524C74.7674 259.137 78.4445 259.137 81.5088 259.137C83.9602 259.137 87.433 258.729 88.863 258.524L90.0887 263.427Z" fill="#B2C3FF"/>
<path d="M96.83 452.185C96.83 451.695 97.8515 445.444 98.6686 442.379L109.7 442.379C111.722 445.413 118.116 448.313 121.344 449.121C123.305 449.611 123.387 452.185 123.183 453.411C118.484 454.023 113.867 454.023 108.474 454.023C101.733 454.023 96.83 452.798 96.83 452.185Z" fill="#2B3A7C"/>
<path d="M47.1892 451.682L49.6406 442.49L61.8976 443.102C63.1233 445.554 72.3161 448.005 74.7675 449.844C76.7286 451.315 73.9503 453.725 72.316 454.747H56.9948C54.0531 454.747 49.232 452.704 47.1892 451.682Z" fill="#2B3A7C"/>
<path d="M67.4131 238.913C67.9033 241.365 73.3373 248.515 75.993 251.783L84.573 251.17C84.7773 248.106 85.1859 241.365 85.1859 238.913C85.1859 236.462 88.863 233.398 90.7015 232.172C91.7229 231.355 93.8883 229.353 94.3786 227.882C94.9915 226.043 93.1529 218.689 90.7015 217.463C88.7404 216.483 87.0244 217.872 86.4116 218.689C86.003 217.872 84.3279 215.87 80.8959 214.399C76.606 212.561 73.5416 217.463 68.6388 221.141C63.736 224.818 66.8002 235.849 67.4131 238.913Z" fill="#3049A0"/>
<path d="M363.106 181.124H401.384V187.504C401.384 187.504 399.064 189.824 382.245 189.824C365.426 189.824 363.106 187.504 363.106 187.504V181.124Z" fill="url(#paint1_linear_5_583)"/>
<ellipse cx="382.245" cy="181.124" rx="19.1391" ry="2.89986" fill="#6885EF"/>
<path d="M363.106 174.188H401.384V180.568C401.384 180.568 399.064 182.888 382.245 182.888C365.426 182.888 363.106 180.568 363.106 180.568V174.188Z" fill="url(#paint2_linear_5_583)"/>
<ellipse cx="382.245" cy="174.188" rx="19.1391" ry="2.89986" fill="#6885EF"/>
<path d="M363.106 167.49H401.384V173.869C401.384 173.869 399.064 176.189 382.245 176.189C365.426 176.189 363.106 173.869 363.106 173.869V167.49Z" fill="url(#paint3_linear_5_583)"/>
<ellipse cx="382.245" cy="167.49" rx="19.1391" ry="2.89986" fill="#6885EF"/>
<path d="M365.977 160.791H404.255V167.171C404.255 167.171 401.935 169.491 385.116 169.491C368.296 169.491 365.977 167.171 365.977 167.171V160.791Z" fill="url(#paint4_linear_5_583)"/>
<ellipse cx="385.116" cy="160.791" rx="19.1391" ry="2.89986" fill="#6785EF"/>
<path d="M506.116 156.59H538.658V162.014C538.658 162.014 536.686 163.986 522.387 163.986C508.088 163.986 506.116 162.014 506.116 162.014V156.59Z" fill="url(#paint5_linear_5_583)"/>
<ellipse cx="522.387" cy="156.59" rx="16.2713" ry="2.46534" fill="#6885EF"/>
<path d="M506.116 150.693H538.658V156.117C538.658 156.117 536.686 158.089 522.387 158.089C508.088 158.089 506.116 156.117 506.116 156.117V150.693Z" fill="url(#paint6_linear_5_583)"/>
<ellipse cx="522.387" cy="150.693" rx="16.2713" ry="2.46534" fill="#6885EF"/>
<path d="M506.116 144.998H538.658V150.422C538.658 150.422 536.686 152.394 522.387 152.394C508.088 152.394 506.116 150.422 506.116 150.422V144.998Z" fill="url(#paint7_linear_5_583)"/>
<ellipse cx="522.387" cy="144.998" rx="16.2713" ry="2.46534" fill="#6885EF"/>
<path d="M508.557 139.303H541.099V144.727C541.099 144.727 539.127 146.699 524.828 146.699C510.529 146.699 508.557 144.727 508.557 144.727V139.303Z" fill="url(#paint8_linear_5_583)"/>
<ellipse cx="524.828" cy="139.303" rx="16.2713" ry="2.46534" fill="#6785EF"/>
<path d="M550.668 280.475H605.86V289.674C605.86 289.674 602.515 293.019 578.264 293.019C554.013 293.019 550.668 289.674 550.668 289.674V280.475Z" fill="url(#paint9_linear_5_583)"/>
<ellipse cx="578.264" cy="280.475" rx="27.5959" ry="4.18119" fill="#6885EF"/>
<path d="M550.668 270.475H605.86V279.674C605.86 279.674 602.515 283.019 578.264 283.019C554.013 283.019 550.668 279.674 550.668 279.674V270.475Z" fill="url(#paint10_linear_5_583)"/>
<ellipse cx="578.264" cy="270.475" rx="27.5959" ry="4.18119" fill="#6885EF"/>
<path d="M550.668 260.817H605.86V270.015C605.86 270.015 602.515 273.36 578.264 273.36C554.013 273.36 550.668 270.015 550.668 270.015V260.817Z" fill="url(#paint11_linear_5_583)"/>
<ellipse cx="578.264" cy="260.817" rx="27.5959" ry="4.18119" fill="#6885EF"/>
<path d="M550.668 251.158H605.86V260.357C605.86 260.357 602.515 263.702 578.264 263.702C554.013 263.702 550.668 260.357 550.668 260.357V251.158Z" fill="url(#paint12_linear_5_583)"/>
<ellipse cx="578.264" cy="251.158" rx="27.5959" ry="4.18119" fill="#6885EF"/>
<path d="M554.808 241.499H610V250.698C610 250.698 606.655 254.043 582.404 254.043C558.153 254.043 554.808 250.698 554.808 250.698V241.499Z" fill="url(#paint13_linear_5_583)"/>
<ellipse cx="582.404" cy="241.499" rx="27.5959" ry="4.18119" fill="#6785EF"/>
<defs>
<linearGradient id="paint0_linear_5_583" x1="277.9" y1="193.156" x2="313.441" y2="316.233" gradientUnits="userSpaceOnUse">
<stop stop-color="#6885EF" stop-opacity="0.43"/>
<stop offset="1" stop-color="#F9AEC5" stop-opacity="0.3"/>
</linearGradient>
<linearGradient id="paint1_linear_5_583" x1="363.106" y1="187.504" x2="401.384" y2="187.504" gradientUnits="userSpaceOnUse">
<stop stop-color="#6785EF"/>
<stop offset="0.497238" stop-color="#B2C3FF"/>
<stop offset="1" stop-color="#6785EF"/>
</linearGradient>
<linearGradient id="paint2_linear_5_583" x1="363.106" y1="180.568" x2="401.384" y2="180.568" gradientUnits="userSpaceOnUse">
<stop stop-color="#6785EF"/>
<stop offset="0.497238" stop-color="#B2C3FF"/>
<stop offset="1" stop-color="#6785EF"/>
</linearGradient>
<linearGradient id="paint3_linear_5_583" x1="363.106" y1="173.869" x2="401.384" y2="173.869" gradientUnits="userSpaceOnUse">
<stop stop-color="#6785EF"/>
<stop offset="0.497238" stop-color="#B2C3FF"/>
<stop offset="1" stop-color="#6785EF"/>
</linearGradient>
<linearGradient id="paint4_linear_5_583" x1="365.977" y1="167.171" x2="404.255" y2="167.171" gradientUnits="userSpaceOnUse">
<stop stop-color="#6785EF"/>
<stop offset="0.497238" stop-color="#B2C3FF"/>
<stop offset="1" stop-color="#6785EF"/>
</linearGradient>
<linearGradient id="paint5_linear_5_583" x1="506.116" y1="162.014" x2="538.658" y2="162.014" gradientUnits="userSpaceOnUse">
<stop stop-color="#6785EF"/>
<stop offset="0.497238" stop-color="#B2C3FF"/>
<stop offset="1" stop-color="#6785EF"/>
</linearGradient>
<linearGradient id="paint6_linear_5_583" x1="506.116" y1="156.117" x2="538.658" y2="156.117" gradientUnits="userSpaceOnUse">
<stop stop-color="#6785EF"/>
<stop offset="0.497238" stop-color="#B2C3FF"/>
<stop offset="1" stop-color="#6785EF"/>
</linearGradient>
<linearGradient id="paint7_linear_5_583" x1="506.116" y1="150.422" x2="538.658" y2="150.422" gradientUnits="userSpaceOnUse">
<stop stop-color="#6785EF"/>
<stop offset="0.497238" stop-color="#B2C3FF"/>
<stop offset="1" stop-color="#6785EF"/>
</linearGradient>
<linearGradient id="paint8_linear_5_583" x1="508.557" y1="144.727" x2="541.099" y2="144.727" gradientUnits="userSpaceOnUse">
<stop stop-color="#6785EF"/>
<stop offset="0.497238" stop-color="#B2C3FF"/>
<stop offset="1" stop-color="#6785EF"/>
</linearGradient>
<linearGradient id="paint9_linear_5_583" x1="550.668" y1="289.674" x2="605.86" y2="289.674" gradientUnits="userSpaceOnUse">
<stop stop-color="#6785EF"/>
<stop offset="0.497238" stop-color="#B2C3FF"/>
<stop offset="1" stop-color="#6785EF"/>
</linearGradient>
<linearGradient id="paint10_linear_5_583" x1="550.668" y1="279.674" x2="605.86" y2="279.674" gradientUnits="userSpaceOnUse">
<stop stop-color="#6785EF"/>
<stop offset="0.497238" stop-color="#B2C3FF"/>
<stop offset="1" stop-color="#6785EF"/>
</linearGradient>
<linearGradient id="paint11_linear_5_583" x1="550.668" y1="270.015" x2="605.86" y2="270.015" gradientUnits="userSpaceOnUse">
<stop stop-color="#6785EF"/>
<stop offset="0.497238" stop-color="#B2C3FF"/>
<stop offset="1" stop-color="#6785EF"/>
</linearGradient>
<linearGradient id="paint12_linear_5_583" x1="550.668" y1="260.357" x2="605.86" y2="260.357" gradientUnits="userSpaceOnUse">
<stop stop-color="#6785EF"/>
<stop offset="0.497238" stop-color="#B2C3FF"/>
<stop offset="1" stop-color="#6785EF"/>
</linearGradient>
<linearGradient id="paint13_linear_5_583" x1="554.808" y1="250.698" x2="610" y2="250.698" gradientUnits="userSpaceOnUse">
<stop stop-color="#6785EF"/>
<stop offset="0.497238" stop-color="#B2C3FF"/>
<stop offset="1" stop-color="#6785EF"/>
</linearGradient>
</defs>
</svg>
