<svg width="607" height="440" viewBox="0 0 607 440" fill="none" xmlns="http://www.w3.org/2000/svg">
<path d="M546.283 213.28C522.028 272.143 462.549 267.891 406.991 285.891C361.73 300.555 326.004 343.234 236.415 335.188C146.827 327.141 73.3385 246.333 98.1947 156.79C123.051 67.2477 228.613 15.7869 358.123 71.9348C487.633 128.083 570.539 154.417 546.283 213.28Z" fill="url(#paint0_linear_5_853)" fill-opacity="0.1"/>
<ellipse cx="408" cy="358" rx="98" ry="7" fill="#F3F3F3"/>
<rect x="306.567" y="31.4587" width="172.112" height="257.364" rx="18.0861" fill="#B2C3FF"/>
<rect x="304.142" y="28.5439" width="172.112" height="257.364" rx="18.0861" fill="url(#paint1_linear_5_853)"/>
<ellipse cx="390.198" cy="157.656" rx="60.8689" ry="62.4043" fill="white"/>
<path d="M381.802 151.201C381.802 157.965 372.567 161.099 369.628 161.96C373.266 165.116 382.725 171.428 391.457 171.428C400.189 171.428 406.849 165.116 409.088 161.96C406.429 160.382 399.853 156.021 399.853 151.201V141.302H381.802V151.201Z" fill="#FCD8E3"/>
<path d="M346.54 180.681V201.124C346.54 201.124 359.134 219.63 391.877 219.63C424.62 219.63 432.596 201.124 432.596 201.124C433.436 193.377 434.611 188.256 432.596 180.681C430.581 173.107 412.756 161.443 404.5 158C402.541 161.156 396.724 166 389 166C381.276 166 379.319 161.156 377.5 158C377.5 158 346.54 172.418 346.54 180.681Z" fill="#B2C3FF"/>
<path d="M373.146 112.103C372.16 101.68 380.358 92.6699 390.828 92.6699C401.144 92.6699 409.29 101.43 408.541 111.72L406.793 135.739C406.194 143.969 399.342 150.34 391.09 150.34C382.969 150.34 376.18 144.164 375.415 136.079L373.146 112.103Z" fill="#FCD8E3"/>
<path d="M375.085 130.973C373.266 127.387 369.628 111.434 371.307 103.86C373.406 94.3914 396.075 87.9357 394.815 82.7712C399.433 84.9231 409.088 95.4243 409.088 108.163C409.088 120.479 407.833 124.557 407.264 127.564C407.198 128.529 407.103 129.393 406.989 130.112C406.989 129.235 407.097 128.445 407.264 127.564C407.681 121.407 406.887 111.14 401.952 108.163C394.815 103.86 386.42 102.705 378.863 108.163C372.986 112.409 373.966 127.485 375.085 130.973Z" fill="#F9759C"/>
<rect x="337.725" y="72.4421" width="4.19785" height="19.7972" fill="#D84AA8"/>
<rect x="337.725" y="76.7458" width="4.30375" height="19.3101" transform="rotate(-90 337.725 76.7458)" fill="#D84AA8"/>
<rect width="4.19785" height="19.7972" transform="matrix(-1 0 0 1 443.51 72.4421)" fill="#D84AA8"/>
<rect width="4.30375" height="19.3101" transform="matrix(4.37114e-08 -1 -1 -4.37114e-08 443.51 76.7458)" fill="#D84AA8"/>
<rect width="4.19785" height="21.5187" transform="matrix(1 0 0 -1 337.725 232.542)" fill="#D84AA8"/>
<rect width="4.67798" height="19.3101" transform="matrix(-4.02145e-08 1 1 4.75124e-08 337.725 227.864)" fill="#D84AA8"/>
<rect x="443.51" y="232.542" width="4.19785" height="21.5187" transform="rotate(-180 443.51 232.542)" fill="#D84AA8"/>
<rect x="443.51" y="227.864" width="4.67798" height="19.3101" transform="rotate(90 443.51 227.864)" fill="#D84AA8"/>
<rect x="359.553" y="244.592" width="61.2887" height="6.02524" rx="3.01262" fill="#D2D9F1"/>
<rect x="341.083" y="257.503" width="98.2298" height="6.02524" rx="3.01262" fill="#D2D9F1"/>
<rect x="315.896" y="37.1514" width="28.5454" height="23.2402" rx="3.61722" fill="#ABB8E7"/>
<rect x="331.848" y="44.0374" width="13.4331" height="8.60749" rx="0.904306" fill="#DBE1F4"/>
<ellipse cx="475.673" cy="30" rx="28.2865" ry="30" fill="#6386FF"/>
<path fill-rule="evenodd" clip-rule="evenodd" d="M491.279 22.9628L472.604 43L462.018 31.6421L464.779 28.6793L472.604 37.0744L488.518 20L491.279 22.9628Z" fill="white"/>
<ellipse cx="242.5" cy="416.296" rx="84.5" ry="11.0291" fill="#F3F3F3"/>
<path d="M212.098 408.932V392.781L213.232 385.553L222.303 386.097L217.838 408.932H212.098Z" fill="#FCD8E3"/>
<path d="M264.041 403.255L261.718 381.075L271.871 380.097L271.373 402.548L264.041 403.255Z" fill="#FCD8E3"/>
<path d="M210.965 416.544C210.965 407.845 212.098 399.146 212.098 399.146C213.799 400.233 217.201 400.233 219.468 399.146C219.468 402.952 220.602 408.388 222.87 409.476L222.87 409.476C225.137 410.563 225.137 410.563 225.137 412.738C225.137 414.913 221.169 416.544 221.169 416.544H210.965Z" fill="#6885EF"/>
<path d="M285.528 410.442C279.292 412.073 269.277 411.892 262.852 411.529L263.219 395.146C267.954 396.233 271.355 394.602 271.355 395.146C271.355 395.689 273.056 405.005 279.859 406.636C285.301 407.941 285.717 409.717 285.528 410.442Z" fill="#6885EF"/>
<path d="M234.208 342.058C234.208 345.973 224.759 378.765 220.035 394.894C216.407 396.199 212.287 395.438 210.965 394.894L217.767 342.058C216.634 329.01 220.035 287.363 220.035 281.709C220.035 276.054 222.303 265.217 222.303 260.505H264.82C266.521 281.709 279 329.846 279 335.5C279 341.154 273.056 390.807 273.056 390.807C273.056 390.807 263.986 391.713 261.718 390.807C261.718 388.088 262.364 356.194 259.718 342.058L240.443 308.35C239.121 317.049 234.208 338.144 234.208 342.058Z" fill="#3C56C6"/>
<path d="M309.771 197.338C307.957 201.253 307.882 206.943 308.071 209.299C309.582 210.749 312.606 213.323 312.606 212.018C312.606 210.387 317.708 209.299 319.409 204.95C320.769 201.47 327.345 192.989 322.81 189.726C321.109 187.008 312.039 192.445 309.771 197.338Z" fill="#FCD8E3"/>
<path d="M202.388 288.118C202.19 283.822 203.671 279.273 202.409 277.213C200.387 276.518 201.254 275.234 197.888 276.564C197.237 276.821 193.411 282.189 193.912 286.834C194.313 290.55 192.855 295.655 198.416 296.752C201.216 296.816 202.636 293.489 202.388 288.118Z" fill="#FCD8E3"/>
<path d="M260.852 241.476C261.759 243.651 277.859 268.117 285.795 280.078L289 278.192L263.119 237.67C261.986 238.032 259.945 239.301 260.852 241.476Z" fill="#4066EA"/>
<path d="M235.341 180.039C235.341 183.519 234.019 191.819 232.507 193.087C234.019 195.262 238.062 199.612 242.144 199.612C247.246 199.612 252.348 194.719 250.081 193.087C248.267 191.783 248.567 182.214 248 180.039C244.977 178.589 235.341 176.559 235.341 180.039Z" fill="#FCD8E3"/>
<path d="M248.869 183.676L243.284 184.836C240.064 185.271 230.789 172.565 229.845 165.215C228.9 157.865 228.965 149.88 245.062 147.706C261.159 145.532 255.151 177.344 254.393 179.939C253.786 182.015 250.457 183.296 248.869 183.676Z" fill="#FCD8E3"/>
<path d="M220.849 160.264C221.625 167.18 231.24 176.606 233.857 179.595C236.856 180.9 241.181 178.773 241.181 178.773C242.293 176.824 242.301 169.087 242.664 166.57C243.306 162.121 246.811 156.237 250.84 153.009C258.691 146.718 249.953 134.932 249.548 131.33C245.969 135.015 243.958 137.429 233.254 138.63C220.86 140.02 219.879 151.62 220.849 160.264Z" fill="#F9759C"/>
<path d="M199.696 238.8L195.5 278.5H202.979C205 270.217 211.662 252.089 212.516 248C213.371 243.911 220.344 231.627 222.303 227.027C222.303 229.412 224.069 239.406 224.069 246.766C224.069 255.966 220.38 264.595 220.38 270.217C220.38 275.84 227.122 280 236.203 280C245.285 280 266.018 274.348 266.018 270.258V249.62V227.027C270.47 234.864 276.198 240.121 283.035 240.121C289.873 240.121 309.246 224.175 313.876 210.545L308 208.5L283.035 223.765C277.337 214.905 267.659 196.675 262.531 194.63C256.12 192.074 251.887 192.585 249.75 192.585C247.614 192.585 248.148 197.186 241.203 197.186C234.259 197.186 234.259 192.585 232.656 192.585C231.374 192.585 224.069 194.63 219.261 197.186C214.453 199.741 199.696 238.8 199.696 238.8Z" fill="#B2C3FF"/>
<path d="M277 286L274.457 288.233C268.776 283.785 254.283 263.382 243 240C235.367 224.183 229.5 207 225.704 194.478C225.893 194.113 226.299 194.048 228 193.5C229.701 192.952 230.617 192.651 230.806 192.833C231.94 198.316 233.771 211.843 247.246 237.792C258 258.5 273.032 280.883 277 286Z" fill="#6885EF"/>
<path d="M276.725 285.515L273.323 286.602L278.426 324.66L294.299 321.398L286.929 303.456L289.764 301.282L276.725 285.515Z" fill="#4066EA"/>
<path d="M276.725 285.514L289.197 277.903L301.668 290.951L300.111 292.303L306.771 304.544L294.299 321.398L286.929 303.456L289.764 301.281L276.725 285.514Z" fill="#6885EF"/>
<path d="M109.637 383.668C71.2148 373.088 65.637 360.374 45.1545 360.374C54.137 350.668 110.514 331.607 137.191 367.168C163.868 402.728 158.984 414.764 158.984 414.764C158.984 414.764 144.137 393.168 109.637 383.668Z" fill="#FEC6D7"/>
<path d="M97.5513 344C29.0513 298.5 38.5513 218 38.5513 218C53.5513 278 137.135 277.661 158.419 328.363C179.704 379.066 158.419 415.224 158.419 415.224C158.419 415.224 166.051 389.5 97.5513 344Z" fill="#6386FF"/>
<path d="M518.245 260.362C498.505 290.281 500.179 338.986 503.483 359.598C512.447 335.995 523.792 302.886 547.378 280.678C574.372 255.262 589.059 224.979 597.959 197.828C589.376 217.504 542.92 222.963 518.245 260.362Z" fill="#7795FF" fill-opacity="0.7"/>
<path d="M522.475 220.396C502.735 250.315 504.408 299.019 507.713 319.631C516.677 296.029 528.021 262.919 551.607 240.712C578.601 215.295 590.055 179.815 590.914 151.407C581.686 155.125 547.149 182.997 522.475 220.396Z" fill="#7795FF" fill-opacity="0.7"/>
<path d="M505.917 228.392C489.07 276.015 497.183 336.641 503.346 361.001C509.689 326.735 526.406 274.131 543.245 241.986C564.199 201.984 575.739 148.345 581.553 109.633C575.097 138.754 526.975 168.863 505.917 228.392Z" fill="#6386FF"/>
<defs>
<linearGradient id="paint0_linear_5_853" x1="345.692" y1="61.9485" x2="292.025" y2="346.462" gradientUnits="userSpaceOnUse">
<stop stop-color="#FEC6D7"/>
<stop offset="1" stop-color="#6386FF"/>
</linearGradient>
<linearGradient id="paint1_linear_5_853" x1="390.198" y1="28.5439" x2="390.198" y2="285.908" gradientUnits="userSpaceOnUse">
<stop stop-color="#D8E1FF"/>
<stop offset="1" stop-color="#F5F4FF"/>
</linearGradient>
</defs>
</svg>
