<svg width="578" height="492" viewBox="0 0 578 492" fill="none" xmlns="http://www.w3.org/2000/svg">
<path d="M69.3473 274.188C80.1552 218.349 131.885 211.773 176.475 186.357C212.8 165.651 236.192 122.021 314.388 113.557C392.583 105.093 469.324 163.247 463.209 246.102C457.094 328.958 375.303 392.391 254.706 365.576C134.108 338.762 58.5394 330.026 69.3473 274.188Z" fill="url(#paint0_linear_5_400)" fill-opacity="0.15"/>
<path d="M481.021 325.683C472.111 298.64 453.356 289.845 444.14 284.486C442.826 290.955 443.334 296.091 445.347 307.995C447.361 319.898 454.511 332.005 466.134 338.063C453.591 352.684 460.496 380.689 464.967 392.803C465.979 395.545 468.943 395.491 470.363 392.866C476.721 381.114 489.995 352.921 481.021 325.683Z" fill="#FFBDD1"/>
<path d="M496.954 363.713C509.779 344.516 519.232 327.989 533.376 329.468C526.289 322.212 490.471 320.718 475.965 353.493C465.254 377.693 464.757 389.506 465.231 394.031C465.359 395.257 466.617 395.72 467.618 395.001C472.361 391.591 485.072 381.499 496.954 363.713Z" fill="#F9759C"/>
<path d="M439.036 376.708L443.8 393.851C444.059 394.782 443.422 395.724 442.461 395.829C441.703 395.913 440.995 395.439 440.783 394.707L435.842 377.657L422.428 374.12L435.373 375.798L432.508 365.25L420.012 358.149L432.089 362.789L429.204 344.959L435.283 361.84L444.795 352.316L435.702 364.301L438.567 374.85L450.355 367.941L439.036 376.708Z" fill="#F9759C"/>
<ellipse rx="5.58863" ry="5.44044" transform="matrix(-0.996589 -0.0825307 -0.0825307 0.996589 451.542 368.645)" fill="#FFBDD1"/>
<ellipse rx="5.58863" ry="5.44044" transform="matrix(-0.996589 -0.0825307 -0.0825307 0.996589 445.513 351.162)" fill="#FFBDD1"/>
<ellipse rx="5.58863" ry="5.44044" transform="matrix(-0.996589 -0.0825307 -0.0825307 0.996589 428.685 343.703)" fill="#FFBDD1"/>
<ellipse rx="5.58863" ry="5.44044" transform="matrix(-0.996589 -0.0825307 -0.0825307 0.996589 417.486 358.546)" fill="#FFBDD1"/>
<ellipse rx="5.58863" ry="5.44044" transform="matrix(-0.996589 -0.0825307 -0.0825307 0.996589 419.901 374.517)" fill="#FFBDD1"/>
<path d="M118.765 346.113C105.229 362.286 102.378 392.963 102.644 406.28C109.573 392.671 124.826 372.962 135.402 365.109C143.545 359.063 161.712 333.092 168.881 317.256C162.475 328.458 135.686 325.897 118.765 346.113Z" fill="#6785EF"/>
<path d="M140.397 362.651C122.098 369.283 107.386 394.272 102.318 405.937C113.807 397.93 135.016 389.172 147.409 388.128C156.95 387.325 183.207 374.733 195.793 364.931C185.72 371.139 163.271 354.36 140.397 362.651Z" fill="#6785EF" fill-opacity="0.6"/>
<path d="M190.482 269.122L178.042 247.073L175.946 242.838C175.946 242.838 58.6715 332.376 56.028 338.087C53.3844 343.798 55.8266 351.98 70.6261 342.762C84.6668 334.016 157.154 291.313 190.482 269.122Z" fill="#6386FF"/>
<path d="M185.412 239.564C186.192 235.211 116.984 129.575 113.149 129.734C110.595 129.84 37.922 201.674 13.0553 228.312C8.06149 233.662 4.99569 237.188 4.81302 237.945C3.72073 242.472 48.1341 344.561 52.0323 345.935C54.9614 346.968 58.4484 347.525 61.9879 346.745C59.5368 347.259 56.9316 347.012 55.3477 344.837C52.2926 340.643 184.633 243.918 185.412 239.564Z" fill="#DAE2FF"/>
<path d="M55.7873 343.859C56.1644 340.488 152.906 266.842 185.472 241.002C118.095 284.133 37.5192 297.084 4.86307 238.424C3.77079 242.95 46.5 341 52.0823 346.413C55.0496 349.291 62.0002 347.5 66.5002 345C64.4823 346.121 60.7593 346.615 58.275 346.101C56.7217 345.779 55.6527 345.063 55.7873 343.859Z" fill="#BAC6F4"/>
<path d="M154.883 153.174C142.36 160.568 114.814 181.378 100.914 191.502L119.209 218.236C131.623 209.129 156.189 190.122 168.674 181.813C184.281 171.428 182.805 163.47 180.328 158.99C177.85 154.511 170.537 143.932 154.883 153.174Z" fill="#BAC6F4"/>
<circle cx="164.54" cy="165.031" r="10.8737" transform="rotate(-2.37924 164.54 165.031)" fill="#E7ECFF"/>
<path d="M481.5 226.5C439 -19.0001 175.5 55.9999 136 158.5" stroke="#F3F3F3" stroke-width="2.93703" stroke-linecap="round" stroke-linejoin="round" stroke-dasharray="9.79 14.69"/>
<path d="M448.688 172.094L452.273 164.397L482.121 179.977L476.541 187.951C472.468 191.064 464.21 194.289 456.257 189.637C448.305 184.985 447.563 176.922 448.688 172.094Z" fill="url(#paint1_linear_5_400)"/>
<ellipse rx="16.8046" ry="17.0926" transform="matrix(0.868214 0.496191 -0.537734 0.843114 466.897 172.35)" fill="#F9AEC5"/>
<path d="M432.098 254.15L439.062 180.127L481.218 206.646L478.398 236.556C493.014 250.245 522.925 278.891 525.641 283.967C529.036 290.311 526.027 297.906 519.158 297.882C513.663 297.863 458.829 268.719 432.098 254.15Z" fill="#EE7298"/>
<path d="M526.951 292.515C526.951 292.515 534.294 198.242 530.187 192.412C512.985 167.992 488.77 146.128 476.678 135.732L468.51 228.245C479.44 237.161 524.623 278.2 526.951 292.515Z" fill="#FFBDD1"/>
<path d="M471.625 162.485C484.22 170.892 492.543 181.579 500.074 190.027L499.191 212.372C494.648 208.491 484.557 198.569 478.92 193.403C468.164 183.546 458.738 177.651 453.979 168.554C450.955 162.772 455.881 151.975 471.625 162.485Z" fill="#FE8FB0"/>
<ellipse cx="465.903" cy="169.346" rx="9.11477" ry="5.75669" transform="rotate(38.1061 465.903 169.346)" fill="#FFE4F6"/>
<path d="M354.606 55.1055L348 48.4998L323.5 84.9998L331.712 90.1865C332.542 90.7104 333.538 90.9271 334.484 90.6675C338.443 89.5814 345.003 86.3478 350.079 79.2705C355.328 71.9525 356.076 61.9491 355.659 57.2531C355.586 56.4332 355.188 55.6875 354.606 55.1055Z" fill="url(#paint2_linear_5_400)"/>
<ellipse rx="13.328" ry="22.1284" transform="matrix(-0.799784 -0.600287 -0.554355 0.83228 335.495 66.5297)" fill="#6785EF"/>
<ellipse rx="13.328" ry="22.1284" transform="matrix(-0.799784 -0.600287 -0.554355 0.83228 335.495 66.5297)" fill="#F9AEC5" fill-opacity="0.59"/>
<path d="M146.995 112.139C146.997 111.779 147.058 105.861 149.048 101.499C154.893 88.69 193.499 99.0198 191.048 112.499C190.182 117.259 187.393 122.62 186.658 123.977C186.539 124.197 186.398 124.401 186.227 124.596C181.86 129.601 172.522 135.66 161.432 132.105C150.134 128.484 146.938 118.564 146.995 112.173L146.995 112.139Z" fill="url(#paint3_linear_5_400)"/>
<ellipse rx="21.6593" ry="22.0305" transform="matrix(0.955306 0.295619 -0.341625 0.939836 169.976 107.377)" fill="#6785EF"/>
<path d="M423.091 114.157L427.755 109.584L392.633 77.5419L387.995 83.2926C387.4 84.0311 387.071 84.9617 387.21 85.9089C387.903 90.6466 391.259 99.5163 399.439 106.308C406.766 112.392 415.467 115.59 420.648 115.335C421.584 115.289 422.422 114.812 423.091 114.157Z" fill="url(#paint4_linear_5_400)"/>
<ellipse rx="11.86" ry="23.7359" transform="matrix(0.684162 -0.72933 -0.739804 -0.672823 411.076 92.716)" fill="#F9AEC5"/>
<path d="M223.891 57.6629L229 50.0001L283 89.0002L277.735 95.4796C276.954 96.441 275.812 97.0115 274.656 96.8013C269.194 95.8086 258.471 91.1339 248 83.5002C236.132 74.8478 225.566 66.5544 223.377 60.5298C223.032 59.5791 223.318 58.5226 223.891 57.6629Z" fill="url(#paint5_linear_5_400)"/>
<path d="M252.248 75.2172C237.399 64.367 227.058 52.8831 229.151 49.5672C231.245 46.2512 244.98 52.359 259.829 63.2092C274.679 74.0594 285.02 85.5433 282.926 88.8593C280.833 92.1752 267.098 86.0674 252.248 75.2172Z" fill="#6785EF"/>
<path d="M252.248 75.2172C237.399 64.367 227.058 52.8831 229.151 49.5672C231.245 46.2512 244.98 52.359 259.829 63.2092C274.679 74.0594 285.02 85.5433 282.926 88.8593C280.833 92.1752 267.098 86.0674 252.248 75.2172Z" fill="#D84AA8" fill-opacity="0.2"/>
<path d="M397 412.583C397 421.742 366.302 457.256 263.744 454.887C175.937 452.858 157 421.742 157 412.583C157 403.424 198.813 396 269.326 396C339.838 396 397 403.424 397 412.583Z" fill="#F3F3F3"/>
<path d="M277.27 335.664C276.585 337.375 274.133 338.087 272.993 338.23C273.278 340.653 275.815 345.842 283.684 347.211C291.553 348.579 294.661 341.509 295.231 337.802C293.378 335.379 290.869 329.506 295.659 325.4C301.646 320.268 304.212 303.59 296.514 298.885C288.816 294.181 281.25 297.504 279.408 298.885C275.987 301.451 274.276 307.011 272.993 310.86C271.71 314.709 272.993 320.696 272.993 322.834C272.993 324.545 276.699 327.538 278.553 328.821C278.41 330.389 277.954 333.953 277.27 335.664Z" fill="#FCD8E3"/>
<path d="M324.949 411.153C324.813 410.215 323.215 406.761 322.259 405.151C322.728 404.689 323.835 403.711 324.508 403.493C325.18 403.274 326.951 403.195 327.752 403.183L330.726 408.365C331.306 408.053 334.054 408.107 337.141 408.793C340.99 409.648 344.411 411.787 345.605 413.573C346.489 414.896 340.264 416.343 337.73 415.165C334.309 413.573 333.074 415.578 330.339 415.165C327.603 414.752 325.166 412.642 324.949 411.153Z" fill="#FCD8E3"/>
<path d="M229.51 414.271C229.855 413.406 231.925 410.506 233.043 409.21C232.821 408.643 232.269 407.414 231.835 407.029C231.4 406.643 230.128 406.105 229.546 405.884L226.02 410.084C225.678 409.633 223.657 408.966 221.224 408.818C218.189 408.634 215.132 409.794 213.794 411.198C212.802 412.238 216.97 415.255 219.128 414.785C222.043 414.15 222.42 416.398 224.526 416.716C226.631 417.034 228.962 415.645 229.51 414.271Z" fill="#FCD8E3"/>
<path d="M237.924 378.002C233.819 384.16 228.088 399.527 225.522 407.938C228.231 409.648 234.076 412.043 235.786 407.938C237.497 403.832 244.624 392.97 248.188 386.555L259.735 367.31V409.221C261.445 408.365 269.999 406.655 280.262 406.655C289.158 406.655 296.086 410.931 299.507 410.931V395.536L302.501 365.6L310.198 378.857L321.745 406.227C324.14 407.938 327.59 405.514 329.015 404.089L320.462 376.291C317.896 366.027 311.823 341.822 309.771 339.085C307.718 336.348 299.364 338.087 295.23 337.802C293.947 340.368 289.756 345.5 283.256 345.5C276.756 345.5 274.56 340.368 274.275 337.802C271.709 337.232 265.637 336.776 261.873 339.513C258.11 342.25 243.912 366.883 237.924 378.002Z" fill="#FCA9C3"/>
<path d="M258.025 398.529V403.661C258.025 404.089 257.854 411.872 257.597 419.057C257.34 426.269 261.018 429.748 267.861 433.169H275.559H284.539C294.803 433.169 297.797 423.761 299.507 422.478C300.876 421.452 298.224 408.08 299.507 399.812C294.233 398.672 288.388 396.391 278.98 396.391C270.427 396.391 258.025 397.246 258.025 398.529Z" fill="url(#paint6_linear_5_400)"/>
<path d="M240 465.698V458H247.27V465.698C247.27 465.698 245.987 468.691 243.421 468.691C240.855 468.691 240 466.696 240 465.698Z" fill="#FCD8E3"/>
<path d="M305 468.408V459H311.843C311.985 461.851 312.185 466.356 311.843 468.408C311.415 470.974 305 470.119 305 468.408Z" fill="#FCD8E3"/>
<path d="M229.121 481.287C229.463 478.55 236.819 470.026 240.24 466.319C240.81 467.032 240.24 468.03 243.233 468.03C246.227 468.03 247.51 465.037 247.51 466.32C247.51 467.175 249.648 471.879 247.938 473.59C246.227 475.3 241.095 488.558 235.108 488.558C229.121 488.558 228.693 484.709 229.121 481.287Z" fill="#B2C3FF"/>
<path d="M309.25 469.741C307.539 469.741 307.112 468.885 305.401 468.03L304.546 473.59C304.546 474.873 303.69 478.722 303.69 482.57C303.69 486.419 307.967 491.979 313.954 491.551C319.941 491.124 318.231 482.998 317.375 481.287C316.691 479.919 313.669 471.879 312.244 468.03C311.816 468.6 310.618 469.741 309.25 469.741Z" fill="#B2C3FF"/>
<path d="M238.78 413.925C237.412 419.057 238.21 444.289 238.78 456.263C242.544 461.395 247.761 459.257 249.899 457.546L255.886 422.478C258.024 425.757 263.67 431.972 269.144 430.604C275.986 428.893 272.137 417.774 271.709 413.925C271.282 410.076 261.873 399.812 259.735 395.108C257.597 390.404 252.465 392.542 248.188 392.97C243.912 393.397 240.491 407.51 238.78 413.925Z" fill="url(#paint7_linear_5_400)"/>
<path d="M289.243 430.604C286.016 430.943 283.969 430.176 283.256 429.321C282.686 428.038 281.546 424.873 281.546 422.478C281.546 419.485 283.256 412.642 287.533 407.082C291.809 401.523 302.073 392.97 306.35 392.97C310.626 392.97 313.192 395.108 314.475 398.957C315.758 402.806 314.475 457.546 311.909 459.257C309.856 460.625 305.922 459.827 304.211 459.257C302.928 455.123 300.106 444.973 299.079 437.446C298.053 429.919 299.507 422.336 300.362 419.485C297.939 422.763 297.369 429.748 289.243 430.604Z" fill="url(#paint8_linear_5_400)"/>
<path d="M273.42 289.477C272.565 291.188 271.71 295.892 277.697 300.596C279.55 300.026 283.941 299.57 286.678 302.307C289.415 305.044 294.09 306.013 296.086 306.156C300.79 314.709 296.941 320.838 296.941 324.545C300.79 321.123 305.067 304.017 305.067 302.307C305.067 300.938 302.786 299.456 301.645 298.885C301.36 298.458 300.79 297.089 300.79 295.036C300.79 292.471 295.231 289.477 291.809 288.194C288.388 286.911 281.973 289.477 280.263 289.477C278.894 289.477 276.841 287.196 275.986 286.056C275.416 286.626 274.104 288.108 273.42 289.477Z" fill="#B2C3FF"/>
<path d="M275.559 324.972C274.532 324.972 274.418 325.543 274.703 325.828L278.552 328.821L278.125 332.243C279.265 331.387 281.717 329.591 282.401 329.249C283.256 328.821 284.967 328.394 284.539 327.538C284.112 326.683 276.842 324.972 275.559 324.972Z" fill="#EDD2E4"/>
<path d="M368.087 427.242C367.061 426.9 350.838 407.427 342.855 397.734L350.981 389.181L365.521 401.583L393.747 393.885L410.853 410.991L408.715 418.261C395.6 421.398 369.114 427.584 368.087 427.242Z" fill="url(#paint9_linear_5_400)"/>
<path d="M348.843 389.181C348.871 389.167 348.903 389.157 348.939 389.152C358.954 386.15 379.558 380.373 382.627 381.055C385.706 381.74 394.174 390.179 398.023 394.313L364.666 403.721C360.06 398.696 350.615 388.915 348.939 389.152C348.907 389.162 348.874 389.171 348.843 389.181Z" fill="#FFBDD1"/>
<defs>
<linearGradient id="paint0_linear_5_400" x1="267.062" y1="372.183" x2="264.791" y2="113.302" gradientUnits="userSpaceOnUse">
<stop stop-color="#FFBDD1" stop-opacity="0.4"/>
<stop offset="1" stop-color="#6386FF" stop-opacity="0.59"/>
</linearGradient>
<linearGradient id="paint1_linear_5_400" x1="450.201" y1="173.003" x2="470.787" y2="196.604" gradientUnits="userSpaceOnUse">
<stop stop-color="#F9AEC5"/>
<stop offset="0.508287" stop-color="#FED1DF"/>
<stop offset="1" stop-color="#F9AEC5"/>
</linearGradient>
<linearGradient id="paint2_linear_5_400" x1="349.404" y1="49.1288" x2="321.216" y2="85.4892" gradientUnits="userSpaceOnUse">
<stop stop-color="#BD9DD6"/>
<stop offset="0.508287" stop-color="#E6CCFB"/>
<stop offset="1" stop-color="#BD9DD6"/>
</linearGradient>
<linearGradient id="paint3_linear_5_400" x1="149.154" y1="112.876" x2="181.664" y2="136.801" gradientUnits="userSpaceOnUse">
<stop stop-color="#6785EF"/>
<stop offset="0.508287" stop-color="#B2C3FF"/>
<stop offset="1" stop-color="#6785EF"/>
</linearGradient>
<linearGradient id="paint4_linear_5_400" x1="428.185" y1="108.486" x2="391.858" y2="76.4327" gradientUnits="userSpaceOnUse">
<stop stop-color="#F9AEC5"/>
<stop offset="0.508287" stop-color="#FED5E2"/>
<stop offset="1" stop-color="#F9AEC5"/>
</linearGradient>
<linearGradient id="paint5_linear_5_400" x1="230.818" y1="44.1397" x2="287.147" y2="79.2337" gradientUnits="userSpaceOnUse">
<stop stop-color="#7E79E1"/>
<stop offset="0.508287" stop-color="#DAD8FF"/>
<stop offset="1" stop-color="#7E79E1"/>
</linearGradient>
<linearGradient id="paint6_linear_5_400" x1="279.403" y1="401.523" x2="276.842" y2="426.755" gradientUnits="userSpaceOnUse">
<stop stop-color="#384F9F"/>
<stop offset="1" stop-color="#3951B2"/>
</linearGradient>
<linearGradient id="paint7_linear_5_400" x1="273.508" y1="392.115" x2="273.508" y2="460.012" gradientUnits="userSpaceOnUse">
<stop stop-color="#3C56C6"/>
<stop offset="1" stop-color="#334891"/>
</linearGradient>
<linearGradient id="paint8_linear_5_400" x1="273.508" y1="392.115" x2="273.508" y2="460.012" gradientUnits="userSpaceOnUse">
<stop stop-color="#3C56C6"/>
<stop offset="1" stop-color="#334891"/>
</linearGradient>
<linearGradient id="paint9_linear_5_400" x1="374.209" y1="389.181" x2="374.209" y2="427.256" gradientUnits="userSpaceOnUse">
<stop stop-color="#3C56C6"/>
<stop offset="1" stop-color="#334891"/>
</linearGradient>
</defs>
</svg>
